<svg xmlns="http://www.w3.org/2000/svg" width="24.247" height="23.259" viewBox="0 0 24.247 23.259">
  <g id="Balance_Icon" data-name="Balance Icon" transform="translate(-321.057 -2658.11)">
    <path id="Path_729" data-name="Path 729" d="M548.389,2846.573a4.693,4.693,0,0,1-.26.516,1.313,1.313,0,0,1-1.171.577c-2.644,0-5.288.01-7.932,0a1.3,1.3,0,0,1-1.441-1.415c-.023-1-.017-2,0-3a1.269,1.269,0,0,1,1.366-1.32c.909-.01,1.818-.008,2.727-.008q2.51,0,5.019,0a1.447,1.447,0,0,1,1.687,1.121Zm-6.63-1.753c0-.658-.242-.9-.89-.9-.666,0-.918.251-.917.915s.24.895.9.9C541.519,2845.735,541.757,2845.5,541.758,2844.819Z" transform="translate(-203.085 -172.406)" fill="#454955"/>
    <path id="Path_730" data-name="Path 730" d="M332.492,2760.352H322.6a4.143,4.143,0,0,1-.464,0c-.727-.083-1.054-.468-1.072-1.265-.011-.507-.007-1.013-.007-1.52q0-6.713,0-13.427a2.657,2.657,0,0,1,.034-.553,1.332,1.332,0,0,1,1.44-1.249c.175-.013.351-.01.527-.01q9.442,0,18.884,0a6.915,6.915,0,0,1,.743.035,1.425,1.425,0,0,1,1.335,1.386c.028,1.188,0,2.377.009,3.565,0,.366-.235.38-.5.38q-3.612,0-7.225,0a4.921,4.921,0,0,0-.924.059,2.038,2.038,0,0,0-1.691,1.948c-.034,1.1-.037,2.213,0,3.317a2.07,2.07,0,0,0,1.92,2c.339.034.68.051,1.02.052q3.4.007,6.791,0c.563,0,.6.035.606.591.005,1.044.008,2.088,0,3.132a2.284,2.284,0,0,1-.1.67,1.205,1.205,0,0,1-1.238.885h-10.2Z" transform="translate(0 -79)" fill="#454955"/>
    <path id="Path_731" data-name="Path 731" d="M467.784,2690.755c.522-.145,1.043-.291,1.565-.434q3.492-.955,6.984-1.91a1.565,1.565,0,0,1,1.345.047,1.142,1.142,0,0,1,.466.433c.238.61.418,1.241.635,1.911H467.8Z" transform="translate(-137.627 -28.3)" fill="#454955"/>
    <path id="Path_732" data-name="Path 732" d="M394.651,2662.449c.058-.035.114-.076.174-.106q3.993-1.982,7.987-3.96a1.611,1.611,0,0,1,.988-.262,1.285,1.285,0,0,1,1.052.664l.565,1.084a2.353,2.353,0,0,1-.229.091c-3,.824-6.006,1.658-9.017,2.457a8.76,8.76,0,0,1-1.5.139Z" transform="translate(-69.03 0)" fill="#454955"/>
  </g>
</svg>
