<svg xmlns="http://www.w3.org/2000/svg" width="20.821" height="24.856" viewBox="0 0 20.821 24.856">
  <g id="Copy_Icon" data-name="Copy Icon" transform="translate(889.833 -5710.237)">
    <path id="Path_788" data-name="Path 788" d="M-877.751,5731.654a2.434,2.434,0,0,0,2.487-2.5c0-1.389,0-2.777,0-4.165,0-.132-.046-.265-.044-.4,0-.19.045-.38.046-.57q0-5.685,0-11.37a2.338,2.338,0,0,0-1.015-1.954,2.44,2.44,0,0,0-1.489-.462c-3.2,0-6.4,0-9.594,0a2.379,2.379,0,0,0-2.061,1.1,3.184,3.184,0,0,0-.331,2.1c.044.763-.073,1.521-.072,2.288q0,1.042,0,2.082,0,2.125,0,4.25,0,2.108,0,4.216c0,.968-.006,1.936,0,2.9a2.439,2.439,0,0,0,2.467,2.473Q-882.557,5731.657-877.751,5731.654Zm-1.49-9.6c-1.1.006-2.207,0-3.31,0h-3.259a1.11,1.11,0,0,1-1.142-1.089,1.1,1.1,0,0,1,1.111-1.137q3.309-.011,6.618,0a1.111,1.111,0,0,1,1.087,1.114A1.109,1.109,0,0,1-879.24,5722.058Zm-7.533-7.549a1.093,1.093,0,0,1,.9-.514c.057,0,.114,0,.171,0h6.33a1.151,1.151,0,0,1,1.216.882,1.116,1.116,0,0,1-1.111,1.352q-1.646,0-3.293,0v0c-1.092,0-2.184,0-3.276,0a1.053,1.053,0,0,1-.976-.579A1.052,1.052,0,0,1-886.773,5714.509Zm-.16,12.49a1.1,1.1,0,0,1,.675-1.242,1.321,1.321,0,0,1,.465-.085c2.173,0,4.346,0,6.519,0a1.121,1.121,0,0,1,1.142,1.249c-.072,1.266-1.65.969-2.481.979-1.741.02-3.483,0-5.224,0A1.1,1.1,0,0,1-886.934,5727Z"/>
    <path id="Path_789" data-name="Path 789" d="M-691.668,5813.439a2.36,2.36,0,0,0-2.092-2.412c-.958-.088-1.931-.018-2.921-.018,0,.05-.007.106-.007.161q0,5.017,0,10.033c0,1.787.01,3.574-.007,5.36a3.58,3.58,0,0,1-.177,1.071,3.637,3.637,0,0,1-3.551,2.554q-2.791,0-5.583,0h-.211c.011.089.014.151.026.211a2.423,2.423,0,0,0,2.423,1.995q4.8.007,9.595,0a2.432,2.432,0,0,0,2.5-2.5q0-5.856,0-11.712Q-691.667,5815.812-691.668,5813.439Z" transform="translate(-177.345 -97.306)"/>
  </g>
</svg>
