<svg id="Download_Icon" data-name="Download Icon" xmlns="http://www.w3.org/2000/svg" width="24.422" height="20.928" viewBox="0 0 24.422 20.928">
  <path id="Path_816" data-name="Path 816" d="M-73.056,686.311c.66,0,1.321,0,1.981,0a.873.873,0,0,1,.7.279.82.82,0,0,1,.148.922.84.84,0,0,1-.829.506c-1.172,0-2.344,0-3.516,0-.311,0-.622-.019-.931-.048a4.548,4.548,0,0,1-2.087-.751,4.846,4.846,0,0,1-2.014-2.654,4.861,4.861,0,0,1-.09-2.627,4.834,4.834,0,0,1,1.335-2.372,4.722,4.722,0,0,1,2.23-1.254c.158-.038.316-.075.476-.1a.144.144,0,0,0,.14-.124,7.715,7.715,0,0,1,.6-1.617,8.009,8.009,0,0,1,3.648-3.629,7.494,7.494,0,0,1,2.095-.688,7.825,7.825,0,0,1,2.165-.079,7.951,7.951,0,0,1,4.635,2.1,7.721,7.721,0,0,1,1.472,1.845.232.232,0,0,0,.194.131,5.83,5.83,0,0,1,2.607.937,5.865,5.865,0,0,1,2.339,2.983,5.772,5.772,0,0,1,.144,3.524,5.842,5.842,0,0,1-3.31,3.9,5.836,5.836,0,0,1-2.448.522c-.935.009-1.87,0-2.8,0a.849.849,0,0,1-.9-1,.851.851,0,0,1,.9-.706c.935,0,1.87,0,2.8,0a4.142,4.142,0,0,0,3.053-1.268,4.117,4.117,0,0,0,1.108-1.995,4.254,4.254,0,0,0-2.314-4.831,4.142,4.142,0,0,0-2.068-.407.361.361,0,0,1-.416-.255,6.122,6.122,0,0,0-1.324-1.962,6.347,6.347,0,0,0-2.551-1.564,5.971,5.971,0,0,0-2.126-.3,6.209,6.209,0,0,0-3.732,1.42,6.3,6.3,0,0,0-1.976,2.8,7.564,7.564,0,0,0-.358,1.686c-.028.233-.025.232-.255.234-.333,0-.669-.018-1,.016a3.056,3.056,0,0,0-1.895.941,3.128,3.128,0,0,0-.879,1.708,3.153,3.153,0,0,0,.635,2.531A3.163,3.163,0,0,0-75.7,686.22a2.934,2.934,0,0,0,.675.086c.656.011,1.312,0,1.967,0Z" transform="translate(79.831 -672.032)" fill="#fff"/>
  <path id="Path_817" data-name="Path 817" d="M261.608,1065.263c0-.777.015-1.554-.005-2.33a.84.84,0,1,1,1.678,0c0,.73,0,1.46,0,2.191,0,.851,0,1.7,0,2.553,0,.131.03.178.168.175.381-.009.763,0,1.144,0a.53.53,0,0,1,.519.308.549.549,0,0,1-.05.593c-.274.387-.555.769-.833,1.152l-1.425,1.961a.4.4,0,0,1-.73,0q-1.1-1.516-2.2-3.033a.607.607,0,0,1-.074-.735.516.516,0,0,1,.457-.246c.4,0,.791-.006,1.186,0,.138,0,.171-.044.17-.176C261.6,1066.872,261.608,1066.068,261.608,1065.263Z" transform="translate(-250.229 -1051.17)" fill="#fff"/>
</svg>
