<svg xmlns="http://www.w3.org/2000/svg" width="14.665" height="25" viewBox="0 0 14.665 25">
  <g id="Get_Started_Icon" data-name="Get Started Icon" transform="translate(0.018 0.075)">
    <path id="Path_6248" data-name="Path 6248" d="M164.833,194.207c-.047-.074-.132-.2-.206-.325a12.381,12.381,0,0,1-1.238-3.135,18.509,18.509,0,0,1,0-9.54c.127-.484.31-.954.467-1.429a.1.1,0,0,1,.113-.079q2.673,0,5.346,0c.076,0,.1.032.125.1a16.673,16.673,0,0,1,1.043,4.982,18.226,18.226,0,0,1-1.009,7.323,10.234,10.234,0,0,1-.939,1.979.823.823,0,0,1-.75.414c-.775,0-1.548,0-2.323,0A.873.873,0,0,1,164.833,194.207Zm2.74-8.988a1.324,1.324,0,1,0-1.871.006A1.333,1.333,0,0,0,167.572,185.22Z" transform="translate(-159.322 -175.957)" fill="#454955"/>
    <path id="Path_6249" data-name="Path 6249" d="M524.009,462.7a.16.16,0,0,1,.028.017c.582.584,1.166,1.164,1.741,1.752a2.562,2.562,0,0,1,.641,1.153,10.577,10.577,0,0,1,.229,4.154,16.7,16.7,0,0,1-.505,2.415.36.36,0,0,1-.714-.017,12.646,12.646,0,0,0-.523-1.843,4.5,4.5,0,0,0-.65-1.185,1.522,1.522,0,0,0-1.058-.639A19.21,19.21,0,0,0,524.009,462.7Z" transform="translate(-512.107 -452.947)" fill="#454955"/>
    <path id="Path_6250" data-name="Path 6250" d="M3.539,468.6a1.569,1.569,0,0,0-1.115.711,5.486,5.486,0,0,0-.816,1.771c-.113.391-.2.788-.3,1.181a.374.374,0,0,1-.353.323.37.37,0,0,1-.363-.31,14.724,14.724,0,0,1-.614-3.9,9.56,9.56,0,0,1,.412-2.907,2.149,2.149,0,0,1,.548-.884c.582-.6,1.177-1.185,1.765-1.775,0,0,.013,0,.025-.009A19.345,19.345,0,0,0,3.539,468.6Z" transform="translate(0 -453.045)" fill="#454955"/>
    <path id="Path_6251" data-name="Path 6251" d="M245.131,910.9a3.583,3.583,0,0,0,.892-3.8.514.514,0,0,0,.13.034c.178-.013.359-.028.535-.051.053-.006.085,0,.108.047a5.407,5.407,0,0,1,.253.525,3.924,3.924,0,0,1,.017,2.761,5.3,5.3,0,0,1-1.438,2.119,2.8,2.8,0,0,1-.272.2.337.337,0,0,1-.431,0,5.313,5.313,0,0,1-.542-.457,5.013,5.013,0,0,1-1.293-2.255,3.829,3.829,0,0,1,.357-2.844c.011-.019.021-.036.034-.055a.253.253,0,0,1,.021-.032c.248.019.491.04.728.059a3.263,3.263,0,0,0-.023,2.245A4.336,4.336,0,0,0,245.131,910.9Z" transform="translate(-237.822 -887.889)" fill="#454955"/>
    <path id="Path_6252" data-name="Path 6252" d="M229.7,2.993c.2-.361.4-.739.614-1.106a7.094,7.094,0,0,1,1.17-1.514,5.582,5.582,0,0,1,.444-.361.344.344,0,0,1,.459,0A4.921,4.921,0,0,1,232.86.4,9.2,9.2,0,0,1,234.6,2.993Z" transform="translate(-224.84 0)" fill="#454955"/>
  </g>
</svg>
