<svg id="Plans_icon" data-name="Plans icon" xmlns="http://www.w3.org/2000/svg" width="18.709" height="25" viewBox="0 0 18.709 25">
  <path id="Path_6315" data-name="Path 6315" d="M4.708,48.557c0,.277,0,.522,0,.768A1.584,1.584,0,0,0,6.3,50.912q3.058.012,6.119,0A1.579,1.579,0,0,0,14,49.341c.008-.253,0-.5,0-.776.082,0,.144-.008.207-.008.857,0,1.715,0,2.572,0a1.868,1.868,0,0,1,1.925,1.933q0,4.1,0,8.2,0,5.525,0,11.05a1.857,1.857,0,0,1-1.551,1.89,1.933,1.933,0,0,1-.366.027H1.937A1.867,1.867,0,0,1,0,69.718V50.561a1.877,1.877,0,0,1,2-2H4.49C4.553,48.557,4.619,48.557,4.708,48.557ZM1.75,61.233v7.527a1.305,1.305,0,0,0,1.415,1.423H15.521A1.3,1.3,0,0,0,16.9,68.806V53.757a1.3,1.3,0,0,0-1.4-1.415H3.145a1.732,1.732,0,0,0-.425.047,1.29,1.29,0,0,0-.967,1.321Q1.748,57.469,1.75,61.233Z" transform="translate(0 -46.663)" fill="#454955"/>
  <path id="Path_6316" data-name="Path 6316" d="M145.367,0h2.958a.778.778,0,0,1,.854.861V2.6a.781.781,0,0,1-.85.85H142.35a.775.775,0,0,1-.85-.861V.83A.766.766,0,0,1,142.326,0Q143.846,0,145.367,0Zm-.019,1.54h2.241a.394.394,0,0,0,.429-.316.421.421,0,0,0-.448-.534c-.791,0-1.582,0-2.378,0-.7,0-1.4,0-2.1,0a.387.387,0,0,0-.409.288.413.413,0,0,0,.429.557Z" transform="translate(-135.985)" fill="#454955"/>
  <g id="Group_2700" data-name="Group 2700" transform="translate(2.757 12.929)">
    <path id="Path_6317" data-name="Path 6317" d="M161.707,352.8h4.424c.429,0,.585.175.573.6-.012.343-.008.69,0,1.033a.464.464,0,0,1-.511.542h-8.941c-.409,0-.557-.164-.55-.573.008-.343,0-.69,0-1.033,0-.394.152-.561.546-.561C158.733,352.8,160.218,352.8,161.707,352.8Z" transform="translate(-153.347 -351.978)" fill="#454955"/>
    <path id="Path_6318" data-name="Path 6318" d="M72.946,332.464a.519.519,0,0,1,.3.553c-.012.37,0,.741,0,1.111a.445.445,0,0,1-.491.495c-.515,0-1.025,0-1.54,0a.443.443,0,0,1-.487-.479q-.006-.614,0-1.228a.427.427,0,0,1,.374-.452,3.128,3.128,0,0,1,.429-.012h1.087c.008.016.016.031.023.051-.238.269-.476.538-.721.8-.019.023-.1.008-.14-.008-.16-.047-.32-.1-.53-.168.218.4.413.756.631,1.146.355-.6.69-1.181,1.041-1.773l-.226-.058c.226-.257.437-.5.651-.741l.035.023C73.238,331.957,73.1,332.2,72.946,332.464Z" transform="translate(-70.725 -331.7)" fill="#454955"/>
  </g>
  <g id="Group_2701" data-name="Group 2701" transform="translate(2.757 17.707)">
    <path id="Path_6319" data-name="Path 6319" d="M161.709,474.4h4.443c.394,0,.546.148.546.538,0,.351,0,.7,0,1.052,0,.429-.144.573-.573.573h-8.887c-.374,0-.538-.16-.538-.53v-1.111c0-.362.164-.522.522-.522Z" transform="translate(-153.349 -473.617)" fill="#454955"/>
    <path id="Path_6320" data-name="Path 6320" d="M71.239,455.719c.226.405.425.764.643,1.154.355-.6.694-1.185,1.045-1.781-.082-.02-.144-.035-.234-.055.226-.257.44-.5.651-.737a.218.218,0,0,1,.031.019c-.14.246-.285.5-.433.752a.537.537,0,0,1,.308.581c-.012.359,0,.713,0,1.072a.446.446,0,0,1-.507.5h-1.52a.442.442,0,0,1-.491-.5c0-.4,0-.807,0-1.208a.415.415,0,0,1,.39-.452c.5-.016,1,0,1.547,0-.265.3-.5.573-.744.834-.023.023-.1.012-.14,0C71.617,455.847,71.453,455.789,71.239,455.719Z" transform="translate(-70.725 -454.3)" fill="#454955"/>
  </g>
  <g id="Group_2702" data-name="Group 2702" transform="translate(2.761 8.162)">
    <path id="Path_6321" data-name="Path 6321" d="M161.8,232.963h-4.443c-.405,0-.557-.148-.557-.55V231.3a.444.444,0,0,1,.5-.5h8.984c.351,0,.507.164.507.518q.006.555,0,1.111c0,.378-.156.534-.534.534Z" transform="translate(-153.449 -229.966)" fill="#454955"/>
    <path id="Path_6322" data-name="Path 6322" d="M71.335,210.823c.226.405.425.76.643,1.154.355-.6.7-1.185,1.048-1.785-.086-.016-.152-.023-.246-.039.23-.261.448-.507.667-.752a.158.158,0,0,0,.035.019c-.144.246-.288.5-.44.76a.537.537,0,0,1,.308.6c-.012.351,0,.7,0,1.052a.44.44,0,0,1-.5.5h-1.52a.438.438,0,0,1-.5-.491q-.006-.585,0-1.169a.436.436,0,0,1,.487-.495c.468,0,.932,0,1.454,0-.269.3-.507.573-.748.834-.019.023-.1.008-.14-.008C71.709,210.951,71.545,210.893,71.335,210.823Z" transform="translate(-70.825 -209.4)" fill="#454955"/>
  </g>
</svg>
