<svg xmlns="http://www.w3.org/2000/svg" width="29.611" height="16.815" viewBox="0 0 29.611 16.815">
  <g id="Reversal_icon" data-name="Reversal icon" transform="translate(6436.611 -2288) rotate(90)">
    <path id="Path_6310" data-name="Path 6310" d="M16.835,6.292a1.336,1.336,0,0,1-.554.677c-.4.316-.782.662-1.171,1q-2.321,1.993-4.647,3.985a1.3,1.3,0,0,1-.627.318.476.476,0,0,1-.522-.236,1.115,1.115,0,0,1-.168-.6V9.352c0-.072-.008-.119-.093-.144a5.572,5.572,0,0,0-3.895.169A6.543,6.543,0,0,0,2.946,11,11.365,11.365,0,0,0,.739,14.653a.766.766,0,0,1-.115.2.122.122,0,0,1-.211,0,.6.6,0,0,1-.1-.224,13.066,13.066,0,0,1-.281-3.289A7.8,7.8,0,0,1,1.87,6.486,8.419,8.419,0,0,1,4.4,4.513,12.6,12.6,0,0,1,9.09,3.16l.075-.007V3.018c0-.739,0-1.475.013-2.214a1.286,1.286,0,0,1,.11-.425A.52.52,0,0,1,9.637.1h.2a2.393,2.393,0,0,1,.5.256c1.4,1.177,2.784,2.366,4.173,3.55.582.5,1.161,1,1.753,1.483a1.489,1.489,0,0,1,.567.731Z" transform="translate(2287.98 6406.9)" fill="#ff7500"/>
    <path id="Path_6311" data-name="Path 6311" d="M.02,8.721a1.336,1.336,0,0,1,.554-.677c.4-.316.782-.662,1.171-1Q4.066,5.057,6.392,3.064a1.3,1.3,0,0,1,.627-.318.476.476,0,0,1,.522.236,1.115,1.115,0,0,1,.168.6V5.661c0,.072.008.119.093.144A5.572,5.572,0,0,0,11.7,5.636a6.543,6.543,0,0,0,2.212-1.62A11.365,11.365,0,0,0,16.116.36a.766.766,0,0,1,.115-.2.122.122,0,0,1,.211,0,.6.6,0,0,1,.1.224,13.066,13.066,0,0,1,.281,3.289,7.8,7.8,0,0,1-1.836,4.851A8.419,8.419,0,0,1,12.459,10.5a12.6,12.6,0,0,1-4.695,1.353l-.075.007v.134c0,.739,0,1.475-.013,2.214a1.286,1.286,0,0,1-.11.425.52.52,0,0,1-.349.279h-.2a2.393,2.393,0,0,1-.5-.256c-1.4-1.177-2.784-2.366-4.173-3.55-.582-.5-1.161-1-1.753-1.483A1.489,1.489,0,0,1,.02,8.893Z" transform="translate(2287.98 6421.698)" fill="#ff7500"/>
  </g>
</svg>
