<svg xmlns="http://www.w3.org/2000/svg" width="24.387" height="22.761" viewBox="0 0 24.387 22.761">
  <g id="Users_Icon" data-name="Users Icon" transform="translate(0 -18.271)">
    <g id="Group_355" data-name="Group 355" transform="translate(0 18.271)">
      <path id="Path_711" data-name="Path 711" d="M39.8,24.774a3.251,3.251,0,0,0,2.3-5.551,3.251,3.251,0,1,0-4.6,4.6A3.133,3.133,0,0,0,39.8,24.774Z" transform="translate(-34.919 -18.271)" fill="#454955"/>
      <path id="Path_712" data-name="Path 712" d="M165.878,99.689a4.876,4.876,0,1,0-1.429-3.449A4.7,4.7,0,0,0,165.878,99.689Z" transform="translate(-157.133 -88.111)" fill="#454955"/>
      <path id="Path_713" data-name="Path 713" d="M368.7,24.774a3.251,3.251,0,0,0,2.3-5.551,3.251,3.251,0,1,0-4.6,4.6A3.133,3.133,0,0,0,368.7,24.774Z" transform="translate(-349.194 -18.271)" fill="#454955"/>
      <path id="Path_714" data-name="Path 714" d="M384.817,164.456a2.431,2.431,0,0,0-.552.267,8.338,8.338,0,0,1-1.238.54,4.461,4.461,0,0,1-1.511.273,5.1,5.1,0,0,1-1.689-.292,6.375,6.375,0,0,1,.063.838,5.591,5.591,0,0,1-1.029,3.252,4.38,4.38,0,0,1,3.366,1.626h1.7a2.912,2.912,0,0,0,1.753-.515,1.74,1.74,0,0,0,.711-1.505Q386.392,164.456,384.817,164.456Z" transform="translate(-362.005 -157.953)" fill="#454955"/>
      <path id="Path_715" data-name="Path 715" d="M90.752,296.938a10.757,10.757,0,0,0-.337-1.378,6.545,6.545,0,0,0-.546-1.238,4.478,4.478,0,0,0-.788-1.029,3.32,3.32,0,0,0-1.086-.68,3.815,3.815,0,0,0-1.416-.254,1.5,1.5,0,0,0-.546.273q-.419.273-.927.61a5.9,5.9,0,0,1-6.148,0q-.508-.336-.927-.61a1.5,1.5,0,0,0-.546-.273,3.815,3.815,0,0,0-1.416.254,3.314,3.314,0,0,0-1.086.68,4.467,4.467,0,0,0-.788,1.029,6.531,6.531,0,0,0-.546,1.238,10.787,10.787,0,0,0-.337,1.378,12.914,12.914,0,0,0-.178,1.385q-.045.641-.044,1.315a3.165,3.165,0,0,0,.927,2.407,3.427,3.427,0,0,0,2.464.883h11.1a3.428,3.428,0,0,0,2.464-.883,3.165,3.165,0,0,0,.927-2.407q0-.673-.044-1.315A13.13,13.13,0,0,0,90.752,296.938Z" transform="translate(-69.838 -280.165)" fill="#454955"/>
      <path id="Path_716" data-name="Path 716" d="M7.532,169.332A5.591,5.591,0,0,1,6.5,166.081a6.344,6.344,0,0,1,.063-.838,5.1,5.1,0,0,1-1.689.292,4.46,4.46,0,0,1-1.511-.273,8.349,8.349,0,0,1-1.238-.54,2.425,2.425,0,0,0-.553-.267Q0,164.455,0,168.939a1.74,1.74,0,0,0,.711,1.505,2.912,2.912,0,0,0,1.753.514h1.7A4.379,4.379,0,0,1,7.532,169.332Z" transform="translate(0 -157.952)" fill="#454955"/>
    </g>
  </g>
</svg>
